<mxfile host="app.diagrams.net" agent="Mozilla/5.0 (Windows NT 10.0; Win64; x64) AppleWebKit/537.36 (KHTML, like Gecko) Chrome/131.0.0.0 Safari/537.36" version="25.0.1" pages="5">
  <diagram name="Page-1" id="2YBvvXClWsGukQMizWep">
    <mxGraphModel dx="1434" dy="738" grid="0" gridSize="10" guides="1" tooltips="1" connect="1" arrows="1" fold="1" page="1" pageScale="1" pageWidth="850" pageHeight="1100" math="0" shadow="0">
      <root>
        <mxCell id="0" />
        <mxCell id="1" parent="0" />
        <mxCell id="aM9ryv3xv72pqoxQDRHE-1" value="采购物资总需用计划申请单" style="shape=umlLifeline;perimeter=lifelinePerimeter;whiteSpace=wrap;html=1;container=0;dropTarget=0;collapsible=0;recursiveResize=0;outlineConnect=0;portConstraint=eastwest;newEdgeStyle={&quot;edgeStyle&quot;:&quot;elbowEdgeStyle&quot;,&quot;elbow&quot;:&quot;vertical&quot;,&quot;curved&quot;:0,&quot;rounded&quot;:0};" parent="1" vertex="1">
          <mxGeometry x="243" y="144" width="100" height="546" as="geometry" />
        </mxCell>
        <mxCell id="aM9ryv3xv72pqoxQDRHE-2" value="" style="html=1;points=[];perimeter=orthogonalPerimeter;outlineConnect=0;targetShapes=umlLifeline;portConstraint=eastwest;newEdgeStyle={&quot;edgeStyle&quot;:&quot;elbowEdgeStyle&quot;,&quot;elbow&quot;:&quot;vertical&quot;,&quot;curved&quot;:0,&quot;rounded&quot;:0};" parent="aM9ryv3xv72pqoxQDRHE-1" vertex="1">
          <mxGeometry x="45" y="70" width="10" height="305" as="geometry" />
        </mxCell>
        <mxCell id="UPMIXnLGt1o2PDk8Wvtw-7" value="" style="html=1;points=[[0,0,0,0,5],[0,1,0,0,-5],[1,0,0,0,5],[1,1,0,0,-5]];perimeter=orthogonalPerimeter;outlineConnect=0;targetShapes=umlLifeline;portConstraint=eastwest;newEdgeStyle={&quot;curved&quot;:0,&quot;rounded&quot;:0};" vertex="1" parent="aM9ryv3xv72pqoxQDRHE-1">
          <mxGeometry x="50" y="113" width="10" height="40" as="geometry" />
        </mxCell>
        <mxCell id="UPMIXnLGt1o2PDk8Wvtw-8" value="2.选择经济线合约包中物料" style="html=1;align=left;spacingLeft=2;endArrow=block;rounded=0;edgeStyle=orthogonalEdgeStyle;curved=0;rounded=0;" edge="1" target="UPMIXnLGt1o2PDk8Wvtw-7" parent="aM9ryv3xv72pqoxQDRHE-1">
          <mxGeometry relative="1" as="geometry">
            <mxPoint x="55" y="93" as="sourcePoint" />
            <Array as="points">
              <mxPoint x="85" y="123" />
            </Array>
          </mxGeometry>
        </mxCell>
        <mxCell id="UPMIXnLGt1o2PDk8Wvtw-9" value="" style="html=1;points=[[0,0,0,0,5],[0,1,0,0,-5],[1,0,0,0,5],[1,1,0,0,-5]];perimeter=orthogonalPerimeter;outlineConnect=0;targetShapes=umlLifeline;portConstraint=eastwest;newEdgeStyle={&quot;curved&quot;:0,&quot;rounded&quot;:0};" vertex="1" parent="aM9ryv3xv72pqoxQDRHE-1">
          <mxGeometry x="50" y="198" width="10" height="40" as="geometry" />
        </mxCell>
        <mxCell id="UPMIXnLGt1o2PDk8Wvtw-10" value="3.选择物料库物料" style="html=1;align=left;spacingLeft=2;endArrow=block;rounded=0;edgeStyle=orthogonalEdgeStyle;curved=0;rounded=0;" edge="1" parent="aM9ryv3xv72pqoxQDRHE-1">
          <mxGeometry relative="1" as="geometry">
            <mxPoint x="55" y="178" as="sourcePoint" />
            <Array as="points">
              <mxPoint x="85" y="208" />
            </Array>
            <mxPoint x="62" y="208" as="targetPoint" />
          </mxGeometry>
        </mxCell>
        <mxCell id="UPMIXnLGt1o2PDk8Wvtw-13" value="" style="html=1;points=[[0,0,0,0,5],[0,1,0,0,-5],[1,0,0,0,5],[1,1,0,0,-5]];perimeter=orthogonalPerimeter;outlineConnect=0;targetShapes=umlLifeline;portConstraint=eastwest;newEdgeStyle={&quot;curved&quot;:0,&quot;rounded&quot;:0};" vertex="1" parent="aM9ryv3xv72pqoxQDRHE-1">
          <mxGeometry x="50" y="285" width="10" height="40" as="geometry" />
        </mxCell>
        <mxCell id="UPMIXnLGt1o2PDk8Wvtw-14" value="4.填写其他信息编制完成" style="html=1;align=left;spacingLeft=2;endArrow=block;rounded=0;edgeStyle=orthogonalEdgeStyle;curved=0;rounded=0;" edge="1" target="UPMIXnLGt1o2PDk8Wvtw-13" parent="aM9ryv3xv72pqoxQDRHE-1">
          <mxGeometry relative="1" as="geometry">
            <mxPoint x="55" y="265" as="sourcePoint" />
            <Array as="points">
              <mxPoint x="85" y="295" />
            </Array>
          </mxGeometry>
        </mxCell>
        <mxCell id="UPMIXnLGt1o2PDk8Wvtw-19" value="" style="html=1;points=[[0,0,0,0,5],[0,1,0,0,-5],[1,0,0,0,5],[1,1,0,0,-5]];perimeter=orthogonalPerimeter;outlineConnect=0;targetShapes=umlLifeline;portConstraint=eastwest;newEdgeStyle={&quot;curved&quot;:0,&quot;rounded&quot;:0};" vertex="1" parent="aM9ryv3xv72pqoxQDRHE-1">
          <mxGeometry x="44" y="436" width="10" height="80" as="geometry" />
        </mxCell>
        <mxCell id="aM9ryv3xv72pqoxQDRHE-5" value="流程中心" style="shape=umlLifeline;perimeter=lifelinePerimeter;whiteSpace=wrap;html=1;container=0;dropTarget=0;collapsible=0;recursiveResize=0;outlineConnect=0;portConstraint=eastwest;newEdgeStyle={&quot;edgeStyle&quot;:&quot;elbowEdgeStyle&quot;,&quot;elbow&quot;:&quot;vertical&quot;,&quot;curved&quot;:0,&quot;rounded&quot;:0};" parent="1" vertex="1">
          <mxGeometry x="473" y="144" width="100" height="549" as="geometry" />
        </mxCell>
        <mxCell id="UPMIXnLGt1o2PDk8Wvtw-15" value="" style="html=1;points=[[0,0,0,0,5],[0,1,0,0,-5],[1,0,0,0,5],[1,1,0,0,-5]];perimeter=orthogonalPerimeter;outlineConnect=0;targetShapes=umlLifeline;portConstraint=eastwest;newEdgeStyle={&quot;curved&quot;:0,&quot;rounded&quot;:0};" vertex="1" parent="aM9ryv3xv72pqoxQDRHE-5">
          <mxGeometry x="43" y="340" width="10" height="133" as="geometry" />
        </mxCell>
        <mxCell id="UPMIXnLGt1o2PDk8Wvtw-17" value="" style="html=1;points=[[0,0,0,0,5],[0,1,0,0,-5],[1,0,0,0,5],[1,1,0,0,-5]];perimeter=orthogonalPerimeter;outlineConnect=0;targetShapes=umlLifeline;portConstraint=eastwest;newEdgeStyle={&quot;curved&quot;:0,&quot;rounded&quot;:0};" vertex="1" parent="aM9ryv3xv72pqoxQDRHE-5">
          <mxGeometry x="48" y="392" width="10" height="40" as="geometry" />
        </mxCell>
        <mxCell id="UPMIXnLGt1o2PDk8Wvtw-18" value="6.用户审批完成" style="html=1;align=left;spacingLeft=2;endArrow=block;rounded=0;edgeStyle=orthogonalEdgeStyle;curved=0;rounded=0;" edge="1" target="UPMIXnLGt1o2PDk8Wvtw-17" parent="aM9ryv3xv72pqoxQDRHE-5">
          <mxGeometry relative="1" as="geometry">
            <mxPoint x="53" y="372" as="sourcePoint" />
            <Array as="points">
              <mxPoint x="83" y="402" />
            </Array>
          </mxGeometry>
        </mxCell>
        <mxCell id="UPMIXnLGt1o2PDk8Wvtw-4" value="" style="shape=umlLifeline;perimeter=lifelinePerimeter;whiteSpace=wrap;html=1;container=1;dropTarget=0;collapsible=0;recursiveResize=0;outlineConnect=0;portConstraint=eastwest;newEdgeStyle={&quot;curved&quot;:0,&quot;rounded&quot;:0};participant=umlActor;" vertex="1" parent="1">
          <mxGeometry x="177" y="148" width="20" height="542" as="geometry" />
        </mxCell>
        <mxCell id="aM9ryv3xv72pqoxQDRHE-3" value="1.新增" style="html=1;verticalAlign=bottom;startArrow=oval;endArrow=block;startSize=8;edgeStyle=elbowEdgeStyle;elbow=vertical;curved=0;rounded=0;exitX=0.5;exitY=0.213;exitDx=0;exitDy=0;exitPerimeter=0;" parent="1" edge="1">
          <mxGeometry relative="1" as="geometry">
            <mxPoint x="187" y="225.08100000000002" as="sourcePoint" />
            <mxPoint x="288" y="225" as="targetPoint" />
          </mxGeometry>
        </mxCell>
        <mxCell id="UPMIXnLGt1o2PDk8Wvtw-16" value="5.提交审批流程" style="html=1;verticalAlign=bottom;startArrow=oval;endArrow=block;startSize=8;curved=0;rounded=0;entryX=0;entryY=0;entryDx=0;entryDy=5;" edge="1" target="UPMIXnLGt1o2PDk8Wvtw-15" parent="1">
          <mxGeometry relative="1" as="geometry">
            <mxPoint x="297" y="489" as="sourcePoint" />
          </mxGeometry>
        </mxCell>
        <mxCell id="UPMIXnLGt1o2PDk8Wvtw-20" value="7.审批完成，同步审批状态" style="html=1;verticalAlign=bottom;endArrow=block;curved=0;rounded=0;entryX=1;entryY=0;entryDx=0;entryDy=5;" edge="1" parent="1" source="aM9ryv3xv72pqoxQDRHE-5">
          <mxGeometry relative="1" as="geometry">
            <mxPoint x="467.5" y="596" as="sourcePoint" />
            <mxPoint x="297" y="596" as="targetPoint" />
          </mxGeometry>
        </mxCell>
      </root>
    </mxGraphModel>
  </diagram>
  <diagram id="u0NXiOvA91Bjbqm5u2os" name="入库管理-新增方式">
    <mxGraphModel dx="1434" dy="738" grid="0" gridSize="10" guides="1" tooltips="1" connect="1" arrows="1" fold="1" page="1" pageScale="1" pageWidth="827" pageHeight="1169" math="0" shadow="0">
      <root>
        <mxCell id="0" />
        <mxCell id="1" parent="0" />
        <mxCell id="1CduinYcsN7PTPfK8PAq-14" value="" style="shape=umlLifeline;perimeter=lifelinePerimeter;whiteSpace=wrap;html=1;container=1;dropTarget=0;collapsible=0;recursiveResize=0;outlineConnect=0;portConstraint=eastwest;newEdgeStyle={&quot;curved&quot;:0,&quot;rounded&quot;:0};participant=umlActor;" vertex="1" parent="1">
          <mxGeometry x="45" y="122" width="20" height="735" as="geometry" />
        </mxCell>
        <mxCell id="1CduinYcsN7PTPfK8PAq-25" value="入库单" style="shape=umlLifeline;perimeter=lifelinePerimeter;whiteSpace=wrap;html=1;container=1;dropTarget=0;collapsible=0;recursiveResize=0;outlineConnect=0;portConstraint=eastwest;newEdgeStyle={&quot;curved&quot;:0,&quot;rounded&quot;:0};" vertex="1" parent="1">
          <mxGeometry x="98" y="122" width="100" height="734" as="geometry" />
        </mxCell>
        <mxCell id="1CduinYcsN7PTPfK8PAq-30" value="" style="html=1;points=[[0,0,0,0,5],[0,1,0,0,-5],[1,0,0,0,5],[1,1,0,0,-5]];perimeter=orthogonalPerimeter;outlineConnect=0;targetShapes=umlLifeline;portConstraint=eastwest;newEdgeStyle={&quot;curved&quot;:0,&quot;rounded&quot;:0};" vertex="1" parent="1CduinYcsN7PTPfK8PAq-25">
          <mxGeometry x="45" y="61" width="10" height="390" as="geometry" />
        </mxCell>
        <mxCell id="1CduinYcsN7PTPfK8PAq-41" value="" style="html=1;points=[[0,0,0,0,5],[0,1,0,0,-5],[1,0,0,0,5],[1,1,0,0,-5]];perimeter=orthogonalPerimeter;outlineConnect=0;targetShapes=umlLifeline;portConstraint=eastwest;newEdgeStyle={&quot;curved&quot;:0,&quot;rounded&quot;:0};" vertex="1" parent="1CduinYcsN7PTPfK8PAq-25">
          <mxGeometry x="50" y="271" width="10" height="40" as="geometry" />
        </mxCell>
        <mxCell id="1CduinYcsN7PTPfK8PAq-42" value="填写入库数量等信息" style="html=1;align=left;spacingLeft=2;endArrow=block;rounded=0;edgeStyle=orthogonalEdgeStyle;curved=0;rounded=0;" edge="1" target="1CduinYcsN7PTPfK8PAq-41" parent="1CduinYcsN7PTPfK8PAq-25">
          <mxGeometry relative="1" as="geometry">
            <mxPoint x="55" y="251" as="sourcePoint" />
            <Array as="points">
              <mxPoint x="85" y="281" />
            </Array>
          </mxGeometry>
        </mxCell>
        <mxCell id="1CduinYcsN7PTPfK8PAq-43" value="" style="html=1;points=[[0,0,0,0,5],[0,1,0,0,-5],[1,0,0,0,5],[1,1,0,0,-5]];perimeter=orthogonalPerimeter;outlineConnect=0;targetShapes=umlLifeline;portConstraint=eastwest;newEdgeStyle={&quot;curved&quot;:0,&quot;rounded&quot;:0};" vertex="1" parent="1CduinYcsN7PTPfK8PAq-25">
          <mxGeometry x="52" y="347" width="10" height="40" as="geometry" />
        </mxCell>
        <mxCell id="1CduinYcsN7PTPfK8PAq-44" value="保存时校验入库数量是否超过计划数量" style="html=1;align=left;spacingLeft=2;endArrow=block;rounded=0;edgeStyle=orthogonalEdgeStyle;curved=0;rounded=0;" edge="1" target="1CduinYcsN7PTPfK8PAq-43" parent="1CduinYcsN7PTPfK8PAq-25">
          <mxGeometry relative="1" as="geometry">
            <mxPoint x="57" y="327" as="sourcePoint" />
            <Array as="points">
              <mxPoint x="87" y="357" />
            </Array>
          </mxGeometry>
        </mxCell>
        <mxCell id="1CduinYcsN7PTPfK8PAq-53" value="" style="html=1;points=[[0,0,0,0,5],[0,1,0,0,-5],[1,0,0,0,5],[1,1,0,0,-5]];perimeter=orthogonalPerimeter;outlineConnect=0;targetShapes=umlLifeline;portConstraint=eastwest;newEdgeStyle={&quot;curved&quot;:0,&quot;rounded&quot;:0};" vertex="1" parent="1CduinYcsN7PTPfK8PAq-25">
          <mxGeometry x="45" y="499" width="10" height="177" as="geometry" />
        </mxCell>
        <mxCell id="1CduinYcsN7PTPfK8PAq-26" value="合同" style="shape=umlLifeline;perimeter=lifelinePerimeter;whiteSpace=wrap;html=1;container=1;dropTarget=0;collapsible=0;recursiveResize=0;outlineConnect=0;portConstraint=eastwest;newEdgeStyle={&quot;curved&quot;:0,&quot;rounded&quot;:0};" vertex="1" parent="1">
          <mxGeometry x="217" y="122" width="100" height="733" as="geometry" />
        </mxCell>
        <mxCell id="1CduinYcsN7PTPfK8PAq-33" value="" style="html=1;points=[[0,0,0,0,5],[0,1,0,0,-5],[1,0,0,0,5],[1,1,0,0,-5]];perimeter=orthogonalPerimeter;outlineConnect=0;targetShapes=umlLifeline;portConstraint=eastwest;newEdgeStyle={&quot;curved&quot;:0,&quot;rounded&quot;:0};" vertex="1" parent="1CduinYcsN7PTPfK8PAq-26">
          <mxGeometry x="45" y="72" width="10" height="53" as="geometry" />
        </mxCell>
        <mxCell id="1CduinYcsN7PTPfK8PAq-27" value="日计划" style="shape=umlLifeline;perimeter=lifelinePerimeter;whiteSpace=wrap;html=1;container=1;dropTarget=0;collapsible=0;recursiveResize=0;outlineConnect=0;portConstraint=eastwest;newEdgeStyle={&quot;curved&quot;:0,&quot;rounded&quot;:0};" vertex="1" parent="1">
          <mxGeometry x="338" y="122" width="100" height="734" as="geometry" />
        </mxCell>
        <mxCell id="1CduinYcsN7PTPfK8PAq-38" value="" style="html=1;points=[[0,0,0,0,5],[0,1,0,0,-5],[1,0,0,0,5],[1,1,0,0,-5]];perimeter=orthogonalPerimeter;outlineConnect=0;targetShapes=umlLifeline;portConstraint=eastwest;newEdgeStyle={&quot;curved&quot;:0,&quot;rounded&quot;:0};" vertex="1" parent="1CduinYcsN7PTPfK8PAq-27">
          <mxGeometry x="43" y="154" width="10" height="73" as="geometry" />
        </mxCell>
        <mxCell id="1CduinYcsN7PTPfK8PAq-54" value="" style="html=1;points=[[0,0,0,0,5],[0,1,0,0,-5],[1,0,0,0,5],[1,1,0,0,-5]];perimeter=orthogonalPerimeter;outlineConnect=0;targetShapes=umlLifeline;portConstraint=eastwest;newEdgeStyle={&quot;curved&quot;:0,&quot;rounded&quot;:0};" vertex="1" parent="1CduinYcsN7PTPfK8PAq-27">
          <mxGeometry x="45" y="530" width="10" height="45" as="geometry" />
        </mxCell>
        <mxCell id="1CduinYcsN7PTPfK8PAq-28" value="工作流" style="shape=umlLifeline;perimeter=lifelinePerimeter;whiteSpace=wrap;html=1;container=1;dropTarget=0;collapsible=0;recursiveResize=0;outlineConnect=0;portConstraint=eastwest;newEdgeStyle={&quot;curved&quot;:0,&quot;rounded&quot;:0};" vertex="1" parent="1">
          <mxGeometry x="572" y="122" width="100" height="739" as="geometry" />
        </mxCell>
        <mxCell id="1CduinYcsN7PTPfK8PAq-47" value="" style="html=1;points=[[0,0,0,0,5],[0,1,0,0,-5],[1,0,0,0,5],[1,1,0,0,-5]];perimeter=orthogonalPerimeter;outlineConnect=0;targetShapes=umlLifeline;portConstraint=eastwest;newEdgeStyle={&quot;curved&quot;:0,&quot;rounded&quot;:0};" vertex="1" parent="1CduinYcsN7PTPfK8PAq-28">
          <mxGeometry x="47" y="419" width="10" height="108" as="geometry" />
        </mxCell>
        <mxCell id="1CduinYcsN7PTPfK8PAq-51" value="" style="html=1;points=[[0,0,0,0,5],[0,1,0,0,-5],[1,0,0,0,5],[1,1,0,0,-5]];perimeter=orthogonalPerimeter;outlineConnect=0;targetShapes=umlLifeline;portConstraint=eastwest;newEdgeStyle={&quot;curved&quot;:0,&quot;rounded&quot;:0};" vertex="1" parent="1CduinYcsN7PTPfK8PAq-28">
          <mxGeometry x="52" y="470" width="10" height="40" as="geometry" />
        </mxCell>
        <mxCell id="1CduinYcsN7PTPfK8PAq-52" value="用户审批" style="html=1;align=left;spacingLeft=2;endArrow=block;rounded=0;edgeStyle=orthogonalEdgeStyle;curved=0;rounded=0;" edge="1" target="1CduinYcsN7PTPfK8PAq-51" parent="1CduinYcsN7PTPfK8PAq-28">
          <mxGeometry relative="1" as="geometry">
            <mxPoint x="57" y="445" as="sourcePoint" />
            <Array as="points">
              <mxPoint x="87" y="475" />
            </Array>
          </mxGeometry>
        </mxCell>
        <mxCell id="1CduinYcsN7PTPfK8PAq-31" value="新增" style="html=1;verticalAlign=bottom;endArrow=block;curved=0;rounded=0;entryX=0;entryY=0;entryDx=0;entryDy=5;" edge="1" target="1CduinYcsN7PTPfK8PAq-30" parent="1" source="1CduinYcsN7PTPfK8PAq-14">
          <mxGeometry x="-0.0045" relative="1" as="geometry">
            <mxPoint x="-2" y="203" as="sourcePoint" />
            <mxPoint as="offset" />
          </mxGeometry>
        </mxCell>
        <mxCell id="1CduinYcsN7PTPfK8PAq-34" value="选择合同" style="html=1;verticalAlign=bottom;endArrow=block;curved=0;rounded=0;entryX=0;entryY=0;entryDx=0;entryDy=5;" edge="1" target="1CduinYcsN7PTPfK8PAq-33" parent="1" source="1CduinYcsN7PTPfK8PAq-25">
          <mxGeometry relative="1" as="geometry">
            <mxPoint x="199" y="199" as="sourcePoint" />
          </mxGeometry>
        </mxCell>
        <mxCell id="1CduinYcsN7PTPfK8PAq-35" value="合同信息" style="html=1;verticalAlign=bottom;endArrow=open;endSize=8;curved=0;rounded=0;exitX=0;exitY=1;exitDx=0;exitDy=-5;" edge="1" parent="1">
          <mxGeometry relative="1" as="geometry">
            <mxPoint x="147.32352941176464" y="242" as="targetPoint" />
            <mxPoint x="262" y="242" as="sourcePoint" />
          </mxGeometry>
        </mxCell>
        <mxCell id="1CduinYcsN7PTPfK8PAq-39" value="选择日计划" style="html=1;verticalAlign=bottom;endArrow=block;curved=0;rounded=0;entryX=0;entryY=0;entryDx=0;entryDy=5;" edge="1" target="1CduinYcsN7PTPfK8PAq-38" parent="1">
          <mxGeometry relative="1" as="geometry">
            <mxPoint x="147.32352941176464" y="281" as="sourcePoint" />
          </mxGeometry>
        </mxCell>
        <mxCell id="1CduinYcsN7PTPfK8PAq-40" value="日计划物料明细" style="html=1;verticalAlign=bottom;endArrow=open;endSize=8;curved=0;rounded=0;exitX=0;exitY=1;exitDx=0;exitDy=-5;" edge="1" parent="1">
          <mxGeometry relative="1" as="geometry">
            <mxPoint x="147.32352941176464" y="340.0000000000002" as="targetPoint" />
            <mxPoint x="381" y="340.0000000000002" as="sourcePoint" />
          </mxGeometry>
        </mxCell>
        <mxCell id="1CduinYcsN7PTPfK8PAq-48" value="提交并发起审批" style="html=1;verticalAlign=bottom;endArrow=block;curved=0;rounded=0;entryX=0;entryY=0;entryDx=0;entryDy=5;" edge="1" parent="1">
          <mxGeometry relative="1" as="geometry">
            <mxPoint x="154" y="562" as="sourcePoint" />
            <mxPoint x="619" y="562" as="targetPoint" />
          </mxGeometry>
        </mxCell>
        <mxCell id="1CduinYcsN7PTPfK8PAq-49" value="审批完成，同步状态" style="html=1;verticalAlign=bottom;endArrow=open;dashed=1;endSize=8;curved=0;rounded=0;exitX=0;exitY=1;exitDx=0;exitDy=-5;" edge="1" parent="1">
          <mxGeometry relative="1" as="geometry">
            <mxPoint x="147.32352941176464" y="629" as="targetPoint" />
            <mxPoint x="619" y="628.9999999999998" as="sourcePoint" />
          </mxGeometry>
        </mxCell>
        <mxCell id="1CduinYcsN7PTPfK8PAq-55" value="推送物料入库数量" style="html=1;verticalAlign=bottom;endArrow=block;curved=0;rounded=0;" edge="1" parent="1">
          <mxGeometry width="80" relative="1" as="geometry">
            <mxPoint x="153" y="669" as="sourcePoint" />
            <mxPoint x="389" y="671" as="targetPoint" />
          </mxGeometry>
        </mxCell>
        <mxCell id="1CduinYcsN7PTPfK8PAq-60" value="资料厂商" style="shape=umlLifeline;perimeter=lifelinePerimeter;whiteSpace=wrap;html=1;container=1;dropTarget=0;collapsible=0;recursiveResize=0;outlineConnect=0;portConstraint=eastwest;newEdgeStyle={&quot;curved&quot;:0,&quot;rounded&quot;:0};" vertex="1" parent="1">
          <mxGeometry x="694" y="122" width="100" height="733" as="geometry" />
        </mxCell>
        <mxCell id="1CduinYcsN7PTPfK8PAq-63" value="" style="html=1;points=[[0,0,0,0,5],[0,1,0,0,-5],[1,0,0,0,5],[1,1,0,0,-5]];perimeter=orthogonalPerimeter;outlineConnect=0;targetShapes=umlLifeline;portConstraint=eastwest;newEdgeStyle={&quot;curved&quot;:0,&quot;rounded&quot;:0};" vertex="1" parent="1CduinYcsN7PTPfK8PAq-60">
          <mxGeometry x="45" y="638" width="10" height="45" as="geometry" />
        </mxCell>
        <mxCell id="1CduinYcsN7PTPfK8PAq-64" value="推送入库单主键、项目编码" style="html=1;verticalAlign=bottom;endArrow=block;curved=0;rounded=0;" edge="1" parent="1" target="1CduinYcsN7PTPfK8PAq-63">
          <mxGeometry width="80" relative="1" as="geometry">
            <mxPoint x="153" y="779" as="sourcePoint" />
            <mxPoint x="651.5" y="779" as="targetPoint" />
          </mxGeometry>
        </mxCell>
        <mxCell id="1CduinYcsN7PTPfK8PAq-65" value="物资流水库" style="shape=umlLifeline;perimeter=lifelinePerimeter;whiteSpace=wrap;html=1;container=1;dropTarget=0;collapsible=0;recursiveResize=0;outlineConnect=0;portConstraint=eastwest;newEdgeStyle={&quot;curved&quot;:0,&quot;rounded&quot;:0};" vertex="1" parent="1">
          <mxGeometry x="454" y="122" width="100" height="737" as="geometry" />
        </mxCell>
        <mxCell id="1CduinYcsN7PTPfK8PAq-67" value="" style="html=1;points=[[0,0,0,0,5],[0,1,0,0,-5],[1,0,0,0,5],[1,1,0,0,-5]];perimeter=orthogonalPerimeter;outlineConnect=0;targetShapes=umlLifeline;portConstraint=eastwest;newEdgeStyle={&quot;curved&quot;:0,&quot;rounded&quot;:0};" vertex="1" parent="1CduinYcsN7PTPfK8PAq-65">
          <mxGeometry x="45" y="378" width="10" height="40" as="geometry" />
        </mxCell>
        <mxCell id="1CduinYcsN7PTPfK8PAq-68" value="" style="html=1;points=[[0,0,0,0,5],[0,1,0,0,-5],[1,0,0,0,5],[1,1,0,0,-5]];perimeter=orthogonalPerimeter;outlineConnect=0;targetShapes=umlLifeline;portConstraint=eastwest;newEdgeStyle={&quot;curved&quot;:0,&quot;rounded&quot;:0};" vertex="1" parent="1CduinYcsN7PTPfK8PAq-65">
          <mxGeometry x="45" y="597" width="10" height="37" as="geometry" />
        </mxCell>
        <mxCell id="1CduinYcsN7PTPfK8PAq-66" value="同步物资入库流水" style="html=1;verticalAlign=bottom;endArrow=block;curved=0;rounded=0;" edge="1" parent="1">
          <mxGeometry width="80" relative="1" as="geometry">
            <mxPoint x="152" y="522" as="sourcePoint" />
            <mxPoint x="503.5" y="521.9999999999998" as="targetPoint" />
          </mxGeometry>
        </mxCell>
        <mxCell id="1CduinYcsN7PTPfK8PAq-69" value="同步生效状态、生效日期" style="html=1;verticalAlign=bottom;endArrow=block;curved=0;rounded=0;" edge="1" parent="1">
          <mxGeometry width="80" relative="1" as="geometry">
            <mxPoint x="152" y="734" as="sourcePoint" />
            <mxPoint x="503.5" y="734" as="targetPoint" />
          </mxGeometry>
        </mxCell>
        <mxCell id="1CduinYcsN7PTPfK8PAq-73" value="入库管理-新增方式序列图" style="shape=umlFrame;whiteSpace=wrap;html=1;pointerEvents=0;width=161;height=37;" vertex="1" parent="1">
          <mxGeometry x="11" y="73" width="807" height="812" as="geometry" />
        </mxCell>
      </root>
    </mxGraphModel>
  </diagram>
  <diagram id="Y0yXMQVyMPzr_gz4Py-b" name="入库管理-供应链方式">
    <mxGraphModel dx="1434" dy="738" grid="0" gridSize="10" guides="1" tooltips="1" connect="1" arrows="1" fold="1" page="1" pageScale="1" pageWidth="827" pageHeight="1169" math="0" shadow="0">
      <root>
        <mxCell id="0" />
        <mxCell id="1" parent="0" />
        <mxCell id="Mtpb2pR8ha7Capj1P45I-2" value="入库单" style="shape=umlLifeline;perimeter=lifelinePerimeter;whiteSpace=wrap;html=1;container=1;dropTarget=0;collapsible=0;recursiveResize=0;outlineConnect=0;portConstraint=eastwest;newEdgeStyle={&quot;curved&quot;:0,&quot;rounded&quot;:0};" vertex="1" parent="1">
          <mxGeometry x="129" y="122" width="100" height="707" as="geometry" />
        </mxCell>
        <mxCell id="Mtpb2pR8ha7Capj1P45I-3" value="" style="html=1;points=[[0,0,0,0,5],[0,1,0,0,-5],[1,0,0,0,5],[1,1,0,0,-5]];perimeter=orthogonalPerimeter;outlineConnect=0;targetShapes=umlLifeline;portConstraint=eastwest;newEdgeStyle={&quot;curved&quot;:0,&quot;rounded&quot;:0};" vertex="1" parent="Mtpb2pR8ha7Capj1P45I-2">
          <mxGeometry x="45" y="120" width="10" height="546" as="geometry" />
        </mxCell>
        <mxCell id="Mtpb2pR8ha7Capj1P45I-4" value="" style="html=1;points=[[0,0,0,0,5],[0,1,0,0,-5],[1,0,0,0,5],[1,1,0,0,-5]];perimeter=orthogonalPerimeter;outlineConnect=0;targetShapes=umlLifeline;portConstraint=eastwest;newEdgeStyle={&quot;curved&quot;:0,&quot;rounded&quot;:0};" vertex="1" parent="Mtpb2pR8ha7Capj1P45I-2">
          <mxGeometry x="50" y="330" width="10" height="40" as="geometry" />
        </mxCell>
        <mxCell id="Mtpb2pR8ha7Capj1P45I-5" value="赋值入库数量" style="html=1;align=left;spacingLeft=2;endArrow=block;rounded=0;edgeStyle=orthogonalEdgeStyle;curved=0;rounded=0;" edge="1" parent="Mtpb2pR8ha7Capj1P45I-2" target="Mtpb2pR8ha7Capj1P45I-4">
          <mxGeometry relative="1" as="geometry">
            <mxPoint x="55" y="310" as="sourcePoint" />
            <Array as="points">
              <mxPoint x="85" y="340" />
            </Array>
          </mxGeometry>
        </mxCell>
        <mxCell id="Mtpb2pR8ha7Capj1P45I-9" value="合同" style="shape=umlLifeline;perimeter=lifelinePerimeter;whiteSpace=wrap;html=1;container=1;dropTarget=0;collapsible=0;recursiveResize=0;outlineConnect=0;portConstraint=eastwest;newEdgeStyle={&quot;curved&quot;:0,&quot;rounded&quot;:0};" vertex="1" parent="1">
          <mxGeometry x="248" y="122" width="100" height="706" as="geometry" />
        </mxCell>
        <mxCell id="Mtpb2pR8ha7Capj1P45I-10" value="" style="html=1;points=[[0,0,0,0,5],[0,1,0,0,-5],[1,0,0,0,5],[1,1,0,0,-5]];perimeter=orthogonalPerimeter;outlineConnect=0;targetShapes=umlLifeline;portConstraint=eastwest;newEdgeStyle={&quot;curved&quot;:0,&quot;rounded&quot;:0};" vertex="1" parent="Mtpb2pR8ha7Capj1P45I-9">
          <mxGeometry x="45" y="140" width="10" height="44" as="geometry" />
        </mxCell>
        <mxCell id="Mtpb2pR8ha7Capj1P45I-11" value="日计划" style="shape=umlLifeline;perimeter=lifelinePerimeter;whiteSpace=wrap;html=1;container=1;dropTarget=0;collapsible=0;recursiveResize=0;outlineConnect=0;portConstraint=eastwest;newEdgeStyle={&quot;curved&quot;:0,&quot;rounded&quot;:0};" vertex="1" parent="1">
          <mxGeometry x="369" y="122" width="102" height="707" as="geometry" />
        </mxCell>
        <mxCell id="Mtpb2pR8ha7Capj1P45I-12" value="" style="html=1;points=[[0,0,0,0,5],[0,1,0,0,-5],[1,0,0,0,5],[1,1,0,0,-5]];perimeter=orthogonalPerimeter;outlineConnect=0;targetShapes=umlLifeline;portConstraint=eastwest;newEdgeStyle={&quot;curved&quot;:0,&quot;rounded&quot;:0};" vertex="1" parent="Mtpb2pR8ha7Capj1P45I-11">
          <mxGeometry x="44" y="213" width="10" height="73" as="geometry" />
        </mxCell>
        <mxCell id="Mtpb2pR8ha7Capj1P45I-18" value="推送入库信息" style="html=1;verticalAlign=bottom;endArrow=block;curved=0;rounded=0;entryX=0;entryY=0;entryDx=0;entryDy=5;" edge="1" parent="1">
          <mxGeometry x="-0.0045" relative="1" as="geometry">
            <mxPoint x="60.5" y="255.00000000000273" as="sourcePoint" />
            <mxPoint as="offset" />
            <mxPoint x="174" y="255.00000000000273" as="targetPoint" />
          </mxGeometry>
        </mxCell>
        <mxCell id="Mtpb2pR8ha7Capj1P45I-19" value="查询合同" style="html=1;verticalAlign=bottom;endArrow=block;curved=0;rounded=0;entryX=0;entryY=0;entryDx=0;entryDy=5;" edge="1" parent="1">
          <mxGeometry relative="1" as="geometry">
            <mxPoint x="178.5" y="270" as="sourcePoint" />
            <mxPoint x="293" y="270" as="targetPoint" />
          </mxGeometry>
        </mxCell>
        <mxCell id="Mtpb2pR8ha7Capj1P45I-20" value="合同信息" style="html=1;verticalAlign=bottom;endArrow=open;endSize=8;curved=0;rounded=0;exitX=0;exitY=1;exitDx=0;exitDy=-5;" edge="1" parent="1">
          <mxGeometry relative="1" as="geometry">
            <mxPoint x="178.32352941176464" y="301" as="targetPoint" />
            <mxPoint x="293" y="301" as="sourcePoint" />
          </mxGeometry>
        </mxCell>
        <mxCell id="Mtpb2pR8ha7Capj1P45I-21" value="查询日计划" style="html=1;verticalAlign=bottom;endArrow=block;curved=0;rounded=0;entryX=0;entryY=0;entryDx=0;entryDy=5;" edge="1" parent="1" target="Mtpb2pR8ha7Capj1P45I-12">
          <mxGeometry relative="1" as="geometry">
            <mxPoint x="178.32352941176464" y="340" as="sourcePoint" />
          </mxGeometry>
        </mxCell>
        <mxCell id="Mtpb2pR8ha7Capj1P45I-22" value="日计划物料明细" style="html=1;verticalAlign=bottom;endArrow=open;endSize=8;curved=0;rounded=0;exitX=0;exitY=1;exitDx=0;exitDy=-5;" edge="1" parent="1">
          <mxGeometry relative="1" as="geometry">
            <mxPoint x="178.32352941176464" y="399.0000000000002" as="targetPoint" />
            <mxPoint x="412" y="399.0000000000002" as="sourcePoint" />
          </mxGeometry>
        </mxCell>
        <mxCell id="Mtpb2pR8ha7Capj1P45I-26" value="资料厂商" style="shape=umlLifeline;perimeter=lifelinePerimeter;whiteSpace=wrap;html=1;container=1;dropTarget=0;collapsible=0;recursiveResize=0;outlineConnect=0;portConstraint=eastwest;newEdgeStyle={&quot;curved&quot;:0,&quot;rounded&quot;:0};" vertex="1" parent="1">
          <mxGeometry x="614" y="122" width="84" height="700" as="geometry" />
        </mxCell>
        <mxCell id="Mtpb2pR8ha7Capj1P45I-29" value="物资流水库" style="shape=umlLifeline;perimeter=lifelinePerimeter;whiteSpace=wrap;html=1;container=1;dropTarget=0;collapsible=0;recursiveResize=0;outlineConnect=0;portConstraint=eastwest;newEdgeStyle={&quot;curved&quot;:0,&quot;rounded&quot;:0};" vertex="1" parent="1">
          <mxGeometry x="492" y="122" width="100" height="706" as="geometry" />
        </mxCell>
        <mxCell id="Mtpb2pR8ha7Capj1P45I-36" value="供应链：进场验收单" style="shape=umlLifeline;perimeter=lifelinePerimeter;whiteSpace=wrap;html=1;container=1;dropTarget=0;collapsible=0;recursiveResize=0;outlineConnect=0;portConstraint=eastwest;newEdgeStyle={&quot;curved&quot;:0,&quot;rounded&quot;:0};" vertex="1" parent="1">
          <mxGeometry x="13" y="122" width="96" height="697" as="geometry" />
        </mxCell>
        <mxCell id="Mtpb2pR8ha7Capj1P45I-30" value="" style="html=1;points=[[0,0,0,0,5],[0,1,0,0,-5],[1,0,0,0,5],[1,1,0,0,-5]];perimeter=orthogonalPerimeter;outlineConnect=0;targetShapes=umlLifeline;portConstraint=eastwest;newEdgeStyle={&quot;curved&quot;:0,&quot;rounded&quot;:0};" vertex="1" parent="1">
          <mxGeometry x="537" y="508" width="10" height="40" as="geometry" />
        </mxCell>
        <mxCell id="Mtpb2pR8ha7Capj1P45I-32" value="同步物资入库流水、生效状态、生效日期" style="html=1;verticalAlign=bottom;endArrow=block;curved=0;rounded=0;" edge="1" parent="1">
          <mxGeometry width="80" relative="1" as="geometry">
            <mxPoint x="183" y="526" as="sourcePoint" />
            <mxPoint x="535" y="526" as="targetPoint" />
          </mxGeometry>
        </mxCell>
        <mxCell id="Mtpb2pR8ha7Capj1P45I-13" value="" style="html=1;points=[[0,0,0,0,5],[0,1,0,0,-5],[1,0,0,0,5],[1,1,0,0,-5]];perimeter=orthogonalPerimeter;outlineConnect=0;targetShapes=umlLifeline;portConstraint=eastwest;newEdgeStyle={&quot;curved&quot;:0,&quot;rounded&quot;:0};" vertex="1" parent="1">
          <mxGeometry x="414" y="579" width="10" height="45" as="geometry" />
        </mxCell>
        <mxCell id="Mtpb2pR8ha7Capj1P45I-25" value="推送物料入库数量" style="html=1;verticalAlign=bottom;endArrow=block;curved=0;rounded=0;" edge="1" parent="1">
          <mxGeometry width="80" relative="1" as="geometry">
            <mxPoint x="184" y="596" as="sourcePoint" />
            <mxPoint x="420" y="598" as="targetPoint" />
          </mxGeometry>
        </mxCell>
        <mxCell id="Mtpb2pR8ha7Capj1P45I-27" value="" style="html=1;points=[[0,0,0,0,5],[0,1,0,0,-5],[1,0,0,0,5],[1,1,0,0,-5]];perimeter=orthogonalPerimeter;outlineConnect=0;targetShapes=umlLifeline;portConstraint=eastwest;newEdgeStyle={&quot;curved&quot;:0,&quot;rounded&quot;:0};" vertex="1" parent="1">
          <mxGeometry x="652" y="657" width="10" height="45" as="geometry" />
        </mxCell>
        <mxCell id="Mtpb2pR8ha7Capj1P45I-28" value="推送入库单主键、项目编码" style="html=1;verticalAlign=bottom;endArrow=block;curved=0;rounded=0;" edge="1" parent="1" target="Mtpb2pR8ha7Capj1P45I-27">
          <mxGeometry width="80" relative="1" as="geometry">
            <mxPoint x="184" y="676" as="sourcePoint" />
            <mxPoint x="682.5" y="676" as="targetPoint" />
          </mxGeometry>
        </mxCell>
        <mxCell id="GZ19wVUKUfH1JJKCuHHz-1" value="出库单" style="shape=umlLifeline;perimeter=lifelinePerimeter;whiteSpace=wrap;html=1;container=1;dropTarget=0;collapsible=0;recursiveResize=0;outlineConnect=0;portConstraint=eastwest;newEdgeStyle={&quot;curved&quot;:0,&quot;rounded&quot;:0};" vertex="1" parent="1">
          <mxGeometry x="721" y="122" width="73" height="705" as="geometry" />
        </mxCell>
        <mxCell id="GZ19wVUKUfH1JJKCuHHz-4" value="" style="html=1;points=[[0,0,0,0,5],[0,1,0,0,-5],[1,0,0,0,5],[1,1,0,0,-5]];perimeter=orthogonalPerimeter;outlineConnect=0;targetShapes=umlLifeline;portConstraint=eastwest;newEdgeStyle={&quot;curved&quot;:0,&quot;rounded&quot;:0};" vertex="1" parent="1">
          <mxGeometry x="755" y="729" width="10" height="80" as="geometry" />
        </mxCell>
        <mxCell id="GZ19wVUKUfH1JJKCuHHz-5" value="收验模式：4.验入出一体、&amp;nbsp;5.收验入出一体 时 推送之出库单" style="html=1;verticalAlign=bottom;endArrow=block;curved=0;rounded=0;" edge="1" parent="1">
          <mxGeometry width="80" relative="1" as="geometry">
            <mxPoint x="182" y="758" as="sourcePoint" />
            <mxPoint x="761.5" y="758" as="targetPoint" />
            <mxPoint as="offset" />
          </mxGeometry>
        </mxCell>
        <mxCell id="eXRUknbjWtvprmxiIz70-1" value="入库管理-供应链推送方式序列图" style="shape=umlFrame;whiteSpace=wrap;html=1;pointerEvents=0;width=193;height=38;" vertex="1" parent="1">
          <mxGeometry x="3" y="74" width="808" height="789" as="geometry" />
        </mxCell>
        <mxCell id="FFy4BAU0fLLnNUWd5SRA-1" value="" style="html=1;points=[[0,0,0,0,5],[0,1,0,0,-5],[1,0,0,0,5],[1,1,0,0,-5]];perimeter=orthogonalPerimeter;outlineConnect=0;targetShapes=umlLifeline;portConstraint=eastwest;newEdgeStyle={&quot;curved&quot;:0,&quot;rounded&quot;:0};" vertex="1" parent="1">
          <mxGeometry x="56" y="173" width="10" height="96" as="geometry" />
        </mxCell>
        <mxCell id="FFy4BAU0fLLnNUWd5SRA-2" value="" style="html=1;points=[[0,0,0,0,5],[0,1,0,0,-5],[1,0,0,0,5],[1,1,0,0,-5]];perimeter=orthogonalPerimeter;outlineConnect=0;targetShapes=umlLifeline;portConstraint=eastwest;newEdgeStyle={&quot;curved&quot;:0,&quot;rounded&quot;:0};" vertex="1" parent="1">
          <mxGeometry x="61" y="206" width="10" height="40" as="geometry" />
        </mxCell>
        <mxCell id="FFy4BAU0fLLnNUWd5SRA-3" value="进场验收" style="html=1;align=left;spacingLeft=2;endArrow=block;rounded=0;edgeStyle=orthogonalEdgeStyle;curved=0;rounded=0;" edge="1" parent="1" target="FFy4BAU0fLLnNUWd5SRA-2">
          <mxGeometry relative="1" as="geometry">
            <mxPoint x="66" y="186" as="sourcePoint" />
            <Array as="points">
              <mxPoint x="96" y="216" />
            </Array>
          </mxGeometry>
        </mxCell>
      </root>
    </mxGraphModel>
  </diagram>
  <diagram id="ELY49LFZot2HgC90jptX" name="出库管理-新增方式">
    <mxGraphModel dx="1434" dy="738" grid="0" gridSize="10" guides="1" tooltips="1" connect="1" arrows="1" fold="1" page="1" pageScale="1" pageWidth="827" pageHeight="1169" math="0" shadow="0">
      <root>
        <mxCell id="0" />
        <mxCell id="1" parent="0" />
        <mxCell id="cidhdJ5kajPlG_Ya0vmF-1" value="" style="shape=umlLifeline;perimeter=lifelinePerimeter;whiteSpace=wrap;html=1;container=1;dropTarget=0;collapsible=0;recursiveResize=0;outlineConnect=0;portConstraint=eastwest;newEdgeStyle={&quot;curved&quot;:0,&quot;rounded&quot;:0};participant=umlActor;" vertex="1" parent="1">
          <mxGeometry x="91" y="122" width="20" height="839" as="geometry" />
        </mxCell>
        <mxCell id="cidhdJ5kajPlG_Ya0vmF-2" value="出库单" style="shape=umlLifeline;perimeter=lifelinePerimeter;whiteSpace=wrap;html=1;container=1;dropTarget=0;collapsible=0;recursiveResize=0;outlineConnect=0;portConstraint=eastwest;newEdgeStyle={&quot;curved&quot;:0,&quot;rounded&quot;:0};" vertex="1" parent="1">
          <mxGeometry x="144" y="122" width="100" height="839" as="geometry" />
        </mxCell>
        <mxCell id="cidhdJ5kajPlG_Ya0vmF-3" value="" style="html=1;points=[[0,0,0,0,5],[0,1,0,0,-5],[1,0,0,0,5],[1,1,0,0,-5]];perimeter=orthogonalPerimeter;outlineConnect=0;targetShapes=umlLifeline;portConstraint=eastwest;newEdgeStyle={&quot;curved&quot;:0,&quot;rounded&quot;:0};" vertex="1" parent="cidhdJ5kajPlG_Ya0vmF-2">
          <mxGeometry x="45" y="61" width="10" height="411" as="geometry" />
        </mxCell>
        <mxCell id="cidhdJ5kajPlG_Ya0vmF-4" value="" style="html=1;points=[[0,0,0,0,5],[0,1,0,0,-5],[1,0,0,0,5],[1,1,0,0,-5]];perimeter=orthogonalPerimeter;outlineConnect=0;targetShapes=umlLifeline;portConstraint=eastwest;newEdgeStyle={&quot;curved&quot;:0,&quot;rounded&quot;:0};" vertex="1" parent="cidhdJ5kajPlG_Ya0vmF-2">
          <mxGeometry x="50" y="324" width="10" height="40" as="geometry" />
        </mxCell>
        <mxCell id="cidhdJ5kajPlG_Ya0vmF-5" value="填写出库数量等信息" style="html=1;align=left;spacingLeft=2;endArrow=block;rounded=0;edgeStyle=orthogonalEdgeStyle;curved=0;rounded=0;" edge="1" parent="cidhdJ5kajPlG_Ya0vmF-2" target="cidhdJ5kajPlG_Ya0vmF-4">
          <mxGeometry relative="1" as="geometry">
            <mxPoint x="55" y="304" as="sourcePoint" />
            <Array as="points">
              <mxPoint x="85" y="334" />
            </Array>
          </mxGeometry>
        </mxCell>
        <mxCell id="cidhdJ5kajPlG_Ya0vmF-6" value="" style="html=1;points=[[0,0,0,0,5],[0,1,0,0,-5],[1,0,0,0,5],[1,1,0,0,-5]];perimeter=orthogonalPerimeter;outlineConnect=0;targetShapes=umlLifeline;portConstraint=eastwest;newEdgeStyle={&quot;curved&quot;:0,&quot;rounded&quot;:0};" vertex="1" parent="cidhdJ5kajPlG_Ya0vmF-2">
          <mxGeometry x="52" y="400" width="10" height="40" as="geometry" />
        </mxCell>
        <mxCell id="cidhdJ5kajPlG_Ya0vmF-7" value="保存时校验出库数量是否超过库存可用数量" style="html=1;align=left;spacingLeft=2;endArrow=block;rounded=0;edgeStyle=orthogonalEdgeStyle;curved=0;rounded=0;" edge="1" parent="cidhdJ5kajPlG_Ya0vmF-2" target="cidhdJ5kajPlG_Ya0vmF-6">
          <mxGeometry relative="1" as="geometry">
            <mxPoint x="57" y="380" as="sourcePoint" />
            <Array as="points">
              <mxPoint x="87" y="410" />
            </Array>
          </mxGeometry>
        </mxCell>
        <mxCell id="cidhdJ5kajPlG_Ya0vmF-8" value="" style="html=1;points=[[0,0,0,0,5],[0,1,0,0,-5],[1,0,0,0,5],[1,1,0,0,-5]];perimeter=orthogonalPerimeter;outlineConnect=0;targetShapes=umlLifeline;portConstraint=eastwest;newEdgeStyle={&quot;curved&quot;:0,&quot;rounded&quot;:0};" vertex="1" parent="cidhdJ5kajPlG_Ya0vmF-2">
          <mxGeometry x="45" y="602" width="10" height="187" as="geometry" />
        </mxCell>
        <mxCell id="cidhdJ5kajPlG_Ya0vmF-36" value="" style="html=1;points=[[0,0,0,0,5],[0,1,0,0,-5],[1,0,0,0,5],[1,1,0,0,-5]];perimeter=orthogonalPerimeter;outlineConnect=0;targetShapes=umlLifeline;portConstraint=eastwest;newEdgeStyle={&quot;curved&quot;:0,&quot;rounded&quot;:0};" vertex="1" parent="cidhdJ5kajPlG_Ya0vmF-2">
          <mxGeometry x="50" y="108" width="10" height="40" as="geometry" />
        </mxCell>
        <mxCell id="cidhdJ5kajPlG_Ya0vmF-37" value="选择领用单位" style="html=1;align=left;spacingLeft=2;endArrow=block;rounded=0;edgeStyle=orthogonalEdgeStyle;curved=0;rounded=0;" edge="1" target="cidhdJ5kajPlG_Ya0vmF-36" parent="cidhdJ5kajPlG_Ya0vmF-2">
          <mxGeometry relative="1" as="geometry">
            <mxPoint x="55" y="88" as="sourcePoint" />
            <Array as="points">
              <mxPoint x="85" y="118" />
            </Array>
          </mxGeometry>
        </mxCell>
        <mxCell id="cidhdJ5kajPlG_Ya0vmF-40" value="" style="html=1;points=[[0,0,0,0,5],[0,1,0,0,-5],[1,0,0,0,5],[1,1,0,0,-5]];perimeter=orthogonalPerimeter;outlineConnect=0;targetShapes=umlLifeline;portConstraint=eastwest;newEdgeStyle={&quot;curved&quot;:0,&quot;rounded&quot;:0};" vertex="1" parent="cidhdJ5kajPlG_Ya0vmF-2">
          <mxGeometry x="50" y="183" width="10" height="40" as="geometry" />
        </mxCell>
        <mxCell id="cidhdJ5kajPlG_Ya0vmF-41" value="选择相关方确认方式" style="html=1;align=left;spacingLeft=2;endArrow=block;rounded=0;edgeStyle=orthogonalEdgeStyle;curved=0;rounded=0;" edge="1" target="cidhdJ5kajPlG_Ya0vmF-40" parent="cidhdJ5kajPlG_Ya0vmF-2">
          <mxGeometry relative="1" as="geometry">
            <mxPoint x="55" y="163" as="sourcePoint" />
            <Array as="points">
              <mxPoint x="85" y="193" />
            </Array>
          </mxGeometry>
        </mxCell>
        <mxCell id="cidhdJ5kajPlG_Ya0vmF-43" value="" style="html=1;points=[[0,0,0,0,5],[0,1,0,0,-5],[1,0,0,0,5],[1,1,0,0,-5]];perimeter=orthogonalPerimeter;outlineConnect=0;targetShapes=umlLifeline;portConstraint=eastwest;newEdgeStyle={&quot;curved&quot;:0,&quot;rounded&quot;:0};" vertex="1" parent="cidhdJ5kajPlG_Ya0vmF-2">
          <mxGeometry x="45" y="489" width="10" height="76" as="geometry" />
        </mxCell>
        <mxCell id="cidhdJ5kajPlG_Ya0vmF-14" value="工作流" style="shape=umlLifeline;perimeter=lifelinePerimeter;whiteSpace=wrap;html=1;container=1;dropTarget=0;collapsible=0;recursiveResize=0;outlineConnect=0;portConstraint=eastwest;newEdgeStyle={&quot;curved&quot;:0,&quot;rounded&quot;:0};" vertex="1" parent="1">
          <mxGeometry x="514" y="122" width="100" height="841" as="geometry" />
        </mxCell>
        <mxCell id="cidhdJ5kajPlG_Ya0vmF-15" value="" style="html=1;points=[[0,0,0,0,5],[0,1,0,0,-5],[1,0,0,0,5],[1,1,0,0,-5]];perimeter=orthogonalPerimeter;outlineConnect=0;targetShapes=umlLifeline;portConstraint=eastwest;newEdgeStyle={&quot;curved&quot;:0,&quot;rounded&quot;:0};" vertex="1" parent="cidhdJ5kajPlG_Ya0vmF-14">
          <mxGeometry x="47" y="589" width="10" height="108" as="geometry" />
        </mxCell>
        <mxCell id="cidhdJ5kajPlG_Ya0vmF-16" value="" style="html=1;points=[[0,0,0,0,5],[0,1,0,0,-5],[1,0,0,0,5],[1,1,0,0,-5]];perimeter=orthogonalPerimeter;outlineConnect=0;targetShapes=umlLifeline;portConstraint=eastwest;newEdgeStyle={&quot;curved&quot;:0,&quot;rounded&quot;:0};" vertex="1" parent="cidhdJ5kajPlG_Ya0vmF-14">
          <mxGeometry x="52" y="640" width="10" height="40" as="geometry" />
        </mxCell>
        <mxCell id="cidhdJ5kajPlG_Ya0vmF-17" value="用户审批" style="html=1;align=left;spacingLeft=2;endArrow=block;rounded=0;edgeStyle=orthogonalEdgeStyle;curved=0;rounded=0;" edge="1" parent="cidhdJ5kajPlG_Ya0vmF-14" target="cidhdJ5kajPlG_Ya0vmF-16">
          <mxGeometry relative="1" as="geometry">
            <mxPoint x="57" y="615" as="sourcePoint" />
            <Array as="points">
              <mxPoint x="87" y="645" />
            </Array>
          </mxGeometry>
        </mxCell>
        <mxCell id="cidhdJ5kajPlG_Ya0vmF-18" value="新增" style="html=1;verticalAlign=bottom;endArrow=block;curved=0;rounded=0;entryX=0;entryY=0;entryDx=0;entryDy=5;" edge="1" parent="1" source="cidhdJ5kajPlG_Ya0vmF-1" target="cidhdJ5kajPlG_Ya0vmF-3">
          <mxGeometry x="-0.0045" relative="1" as="geometry">
            <mxPoint x="44" y="203" as="sourcePoint" />
            <mxPoint as="offset" />
          </mxGeometry>
        </mxCell>
        <mxCell id="cidhdJ5kajPlG_Ya0vmF-21" value="选择物料库存" style="html=1;verticalAlign=bottom;endArrow=block;curved=0;rounded=0;" edge="1" parent="1" target="cidhdJ5kajPlG_Ya0vmF-12">
          <mxGeometry relative="1" as="geometry">
            <mxPoint x="193.32352941176464" y="369" as="sourcePoint" />
            <mxPoint x="305" y="369" as="targetPoint" />
          </mxGeometry>
        </mxCell>
        <mxCell id="cidhdJ5kajPlG_Ya0vmF-22" value="返回物料库存明细" style="html=1;verticalAlign=bottom;endArrow=open;endSize=8;curved=0;rounded=0;exitX=0;exitY=1;exitDx=0;exitDy=-5;exitPerimeter=0;" edge="1" parent="1" source="cidhdJ5kajPlG_Ya0vmF-12" target="cidhdJ5kajPlG_Ya0vmF-3">
          <mxGeometry relative="1" as="geometry">
            <mxPoint x="193.32352941176464" y="405.0000000000002" as="targetPoint" />
            <mxPoint x="427" y="405.0000000000002" as="sourcePoint" />
          </mxGeometry>
        </mxCell>
        <mxCell id="cidhdJ5kajPlG_Ya0vmF-23" value="提交并发起审批" style="html=1;verticalAlign=bottom;endArrow=block;curved=0;rounded=0;" edge="1" parent="1">
          <mxGeometry relative="1" as="geometry">
            <mxPoint x="200" y="732" as="sourcePoint" />
            <mxPoint x="567" y="732" as="targetPoint" />
          </mxGeometry>
        </mxCell>
        <mxCell id="cidhdJ5kajPlG_Ya0vmF-24" value="审批完成，同步状态" style="html=1;verticalAlign=bottom;endArrow=open;dashed=1;endSize=8;curved=0;rounded=0;" edge="1" parent="1" source="cidhdJ5kajPlG_Ya0vmF-15">
          <mxGeometry relative="1" as="geometry">
            <mxPoint x="193.32352941176464" y="799" as="targetPoint" />
            <mxPoint x="665" y="798.9999999999998" as="sourcePoint" />
          </mxGeometry>
        </mxCell>
        <mxCell id="cidhdJ5kajPlG_Ya0vmF-26" value="资料厂商" style="shape=umlLifeline;perimeter=lifelinePerimeter;whiteSpace=wrap;html=1;container=1;dropTarget=0;collapsible=0;recursiveResize=0;outlineConnect=0;portConstraint=eastwest;newEdgeStyle={&quot;curved&quot;:0,&quot;rounded&quot;:0};" vertex="1" parent="1">
          <mxGeometry x="636" y="122" width="100" height="839" as="geometry" />
        </mxCell>
        <mxCell id="cidhdJ5kajPlG_Ya0vmF-27" value="" style="html=1;points=[[0,0,0,0,5],[0,1,0,0,-5],[1,0,0,0,5],[1,1,0,0,-5]];perimeter=orthogonalPerimeter;outlineConnect=0;targetShapes=umlLifeline;portConstraint=eastwest;newEdgeStyle={&quot;curved&quot;:0,&quot;rounded&quot;:0};" vertex="1" parent="cidhdJ5kajPlG_Ya0vmF-26">
          <mxGeometry x="45" y="760" width="10" height="45" as="geometry" />
        </mxCell>
        <mxCell id="cidhdJ5kajPlG_Ya0vmF-28" value="推送出库单主键、项目编码" style="html=1;verticalAlign=bottom;endArrow=block;curved=0;rounded=0;" edge="1" parent="1" target="cidhdJ5kajPlG_Ya0vmF-27">
          <mxGeometry width="80" relative="1" as="geometry">
            <mxPoint x="199" y="901" as="sourcePoint" />
            <mxPoint x="697.5" y="901" as="targetPoint" />
            <mxPoint as="offset" />
          </mxGeometry>
        </mxCell>
        <mxCell id="cidhdJ5kajPlG_Ya0vmF-29" value="物资流水库" style="shape=umlLifeline;perimeter=lifelinePerimeter;whiteSpace=wrap;html=1;container=1;dropTarget=0;collapsible=0;recursiveResize=0;outlineConnect=0;portConstraint=eastwest;newEdgeStyle={&quot;curved&quot;:0,&quot;rounded&quot;:0};" vertex="1" parent="1">
          <mxGeometry x="279" y="122" width="100" height="844" as="geometry" />
        </mxCell>
        <mxCell id="cidhdJ5kajPlG_Ya0vmF-30" value="" style="html=1;points=[[0,0,0,0,5],[0,1,0,0,-5],[1,0,0,0,5],[1,1,0,0,-5]];perimeter=orthogonalPerimeter;outlineConnect=0;targetShapes=umlLifeline;portConstraint=eastwest;newEdgeStyle={&quot;curved&quot;:0,&quot;rounded&quot;:0};" vertex="1" parent="cidhdJ5kajPlG_Ya0vmF-29">
          <mxGeometry x="45" y="431" width="10" height="40" as="geometry" />
        </mxCell>
        <mxCell id="cidhdJ5kajPlG_Ya0vmF-31" value="" style="html=1;points=[[0,0,0,0,5],[0,1,0,0,-5],[1,0,0,0,5],[1,1,0,0,-5]];perimeter=orthogonalPerimeter;outlineConnect=0;targetShapes=umlLifeline;portConstraint=eastwest;newEdgeStyle={&quot;curved&quot;:0,&quot;rounded&quot;:0};" vertex="1" parent="cidhdJ5kajPlG_Ya0vmF-29">
          <mxGeometry x="45" y="714" width="10" height="37" as="geometry" />
        </mxCell>
        <mxCell id="cidhdJ5kajPlG_Ya0vmF-12" value="" style="html=1;points=[[0,0,0,0,5],[0,1,0,0,-5],[1,0,0,0,5],[1,1,0,0,-5]];perimeter=orthogonalPerimeter;outlineConnect=0;targetShapes=umlLifeline;portConstraint=eastwest;newEdgeStyle={&quot;curved&quot;:0,&quot;rounded&quot;:0};" vertex="1" parent="cidhdJ5kajPlG_Ya0vmF-29">
          <mxGeometry x="45" y="234" width="10" height="51" as="geometry" />
        </mxCell>
        <mxCell id="cidhdJ5kajPlG_Ya0vmF-32" value="同步物资出库流水" style="html=1;verticalAlign=bottom;endArrow=block;curved=0;rounded=0;" edge="1" parent="1" target="cidhdJ5kajPlG_Ya0vmF-30">
          <mxGeometry width="80" relative="1" as="geometry">
            <mxPoint x="198" y="575" as="sourcePoint" />
            <mxPoint x="433" y="571" as="targetPoint" />
          </mxGeometry>
        </mxCell>
        <mxCell id="cidhdJ5kajPlG_Ya0vmF-33" value="同步生效状态、生效日期" style="html=1;verticalAlign=bottom;endArrow=block;curved=0;rounded=0;" edge="1" parent="1" target="cidhdJ5kajPlG_Ya0vmF-31">
          <mxGeometry width="80" relative="1" as="geometry">
            <mxPoint x="198" y="851" as="sourcePoint" />
            <mxPoint x="425" y="853" as="targetPoint" />
          </mxGeometry>
        </mxCell>
        <mxCell id="cidhdJ5kajPlG_Ya0vmF-42" value="相关方" style="shape=umlLifeline;perimeter=lifelinePerimeter;whiteSpace=wrap;html=1;container=1;dropTarget=0;collapsible=0;recursiveResize=0;outlineConnect=0;portConstraint=eastwest;newEdgeStyle={&quot;curved&quot;:0,&quot;rounded&quot;:0};" vertex="1" parent="1">
          <mxGeometry x="397" y="122" width="100" height="844" as="geometry" />
        </mxCell>
        <mxCell id="cidhdJ5kajPlG_Ya0vmF-61" value="" style="html=1;points=[[0,0,0,0,5],[0,1,0,0,-5],[1,0,0,0,5],[1,1,0,0,-5]];perimeter=orthogonalPerimeter;outlineConnect=0;targetShapes=umlLifeline;portConstraint=eastwest;newEdgeStyle={&quot;curved&quot;:0,&quot;rounded&quot;:0};" vertex="1" parent="cidhdJ5kajPlG_Ya0vmF-42">
          <mxGeometry x="45" y="491" width="10" height="74" as="geometry" />
        </mxCell>
        <mxCell id="cidhdJ5kajPlG_Ya0vmF-62" value="&lt;span style=&quot;text-align: left;&quot;&gt;&amp;nbsp;分包领用且相关方确认方式为线上确认时，发起&lt;/span&gt;相关方确认" style="html=1;verticalAlign=bottom;endArrow=block;curved=0;rounded=0;entryX=0;entryY=0;entryDx=0;entryDy=5;" edge="1" target="cidhdJ5kajPlG_Ya0vmF-61" parent="1" source="cidhdJ5kajPlG_Ya0vmF-2">
          <mxGeometry relative="1" as="geometry">
            <mxPoint x="476" y="618" as="sourcePoint" />
          </mxGeometry>
        </mxCell>
        <mxCell id="cidhdJ5kajPlG_Ya0vmF-63" value="确认状态" style="html=1;verticalAlign=bottom;endArrow=open;dashed=1;endSize=8;curved=0;rounded=0;" edge="1" parent="1">
          <mxGeometry relative="1" as="geometry">
            <mxPoint x="193.5" y="676" as="targetPoint" />
            <mxPoint x="446" y="674" as="sourcePoint" />
          </mxGeometry>
        </mxCell>
      </root>
    </mxGraphModel>
  </diagram>
  <diagram id="d8wuj7TPt_w6GX525hiV" name="出库管理-供应链推送方式">
    <mxGraphModel dx="1434" dy="738" grid="0" gridSize="10" guides="1" tooltips="1" connect="1" arrows="1" fold="1" page="1" pageScale="1" pageWidth="827" pageHeight="1169" math="0" shadow="0">
      <root>
        <mxCell id="0" />
        <mxCell id="1" parent="0" />
        <mxCell id="_GVzGOX4tjT2hlv4k6Gw-2" value="出库单" style="shape=umlLifeline;perimeter=lifelinePerimeter;whiteSpace=wrap;html=1;container=1;dropTarget=0;collapsible=0;recursiveResize=0;outlineConnect=0;portConstraint=eastwest;newEdgeStyle={&quot;curved&quot;:0,&quot;rounded&quot;:0};" vertex="1" parent="1">
          <mxGeometry x="331" y="122" width="100" height="641" as="geometry" />
        </mxCell>
        <mxCell id="_GVzGOX4tjT2hlv4k6Gw-3" value="" style="html=1;points=[[0,0,0,0,5],[0,1,0,0,-5],[1,0,0,0,5],[1,1,0,0,-5]];perimeter=orthogonalPerimeter;outlineConnect=0;targetShapes=umlLifeline;portConstraint=eastwest;newEdgeStyle={&quot;curved&quot;:0,&quot;rounded&quot;:0};" vertex="1" parent="_GVzGOX4tjT2hlv4k6Gw-2">
          <mxGeometry x="45" y="230" width="10" height="393" as="geometry" />
        </mxCell>
        <mxCell id="_GVzGOX4tjT2hlv4k6Gw-4" value="" style="html=1;points=[[0,0,0,0,5],[0,1,0,0,-5],[1,0,0,0,5],[1,1,0,0,-5]];perimeter=orthogonalPerimeter;outlineConnect=0;targetShapes=umlLifeline;portConstraint=eastwest;newEdgeStyle={&quot;curved&quot;:0,&quot;rounded&quot;:0};" vertex="1" parent="_GVzGOX4tjT2hlv4k6Gw-2">
          <mxGeometry x="50" y="440" width="10" height="40" as="geometry" />
        </mxCell>
        <mxCell id="_GVzGOX4tjT2hlv4k6Gw-5" value="赋值出库数量等信息" style="html=1;align=left;spacingLeft=2;endArrow=block;rounded=0;edgeStyle=orthogonalEdgeStyle;curved=0;rounded=0;" edge="1" parent="_GVzGOX4tjT2hlv4k6Gw-2" target="_GVzGOX4tjT2hlv4k6Gw-4">
          <mxGeometry relative="1" as="geometry">
            <mxPoint x="55" y="420" as="sourcePoint" />
            <Array as="points">
              <mxPoint x="85" y="450" />
            </Array>
          </mxGeometry>
        </mxCell>
        <mxCell id="_GVzGOX4tjT2hlv4k6Gw-9" value="" style="html=1;points=[[0,0,0,0,5],[0,1,0,0,-5],[1,0,0,0,5],[1,1,0,0,-5]];perimeter=orthogonalPerimeter;outlineConnect=0;targetShapes=umlLifeline;portConstraint=eastwest;newEdgeStyle={&quot;curved&quot;:0,&quot;rounded&quot;:0};" vertex="1" parent="_GVzGOX4tjT2hlv4k6Gw-2">
          <mxGeometry x="50" y="277" width="10" height="40" as="geometry" />
        </mxCell>
        <mxCell id="_GVzGOX4tjT2hlv4k6Gw-10" value="赋值领用单位" style="html=1;align=left;spacingLeft=2;endArrow=block;rounded=0;edgeStyle=orthogonalEdgeStyle;curved=0;rounded=0;" edge="1" parent="_GVzGOX4tjT2hlv4k6Gw-2" target="_GVzGOX4tjT2hlv4k6Gw-9">
          <mxGeometry relative="1" as="geometry">
            <mxPoint x="55" y="257" as="sourcePoint" />
            <Array as="points">
              <mxPoint x="85" y="287" />
            </Array>
          </mxGeometry>
        </mxCell>
        <mxCell id="_GVzGOX4tjT2hlv4k6Gw-11" value="" style="html=1;points=[[0,0,0,0,5],[0,1,0,0,-5],[1,0,0,0,5],[1,1,0,0,-5]];perimeter=orthogonalPerimeter;outlineConnect=0;targetShapes=umlLifeline;portConstraint=eastwest;newEdgeStyle={&quot;curved&quot;:0,&quot;rounded&quot;:0};" vertex="1" parent="_GVzGOX4tjT2hlv4k6Gw-2">
          <mxGeometry x="50" y="352" width="10" height="40" as="geometry" />
        </mxCell>
        <mxCell id="_GVzGOX4tjT2hlv4k6Gw-12" value="赋值相关方确认方式" style="html=1;align=left;spacingLeft=2;endArrow=block;rounded=0;edgeStyle=orthogonalEdgeStyle;curved=0;rounded=0;" edge="1" parent="_GVzGOX4tjT2hlv4k6Gw-2" target="_GVzGOX4tjT2hlv4k6Gw-11">
          <mxGeometry relative="1" as="geometry">
            <mxPoint x="55" y="332" as="sourcePoint" />
            <Array as="points">
              <mxPoint x="85" y="362" />
            </Array>
          </mxGeometry>
        </mxCell>
        <mxCell id="_GVzGOX4tjT2hlv4k6Gw-18" value="推送出库信息" style="html=1;verticalAlign=bottom;endArrow=block;curved=0;rounded=0;entryX=0;entryY=0;entryDx=0;entryDy=5;" edge="1" parent="1" target="_GVzGOX4tjT2hlv4k6Gw-3">
          <mxGeometry x="-0.0045" relative="1" as="geometry">
            <mxPoint x="253.5" y="357.0000000000001" as="sourcePoint" />
            <mxPoint as="offset" />
          </mxGeometry>
        </mxCell>
        <mxCell id="_GVzGOX4tjT2hlv4k6Gw-23" value="资料厂商" style="shape=umlLifeline;perimeter=lifelinePerimeter;whiteSpace=wrap;html=1;container=1;dropTarget=0;collapsible=0;recursiveResize=0;outlineConnect=0;portConstraint=eastwest;newEdgeStyle={&quot;curved&quot;:0,&quot;rounded&quot;:0};" vertex="1" parent="1">
          <mxGeometry x="594" y="122" width="100" height="639" as="geometry" />
        </mxCell>
        <mxCell id="_GVzGOX4tjT2hlv4k6Gw-24" value="" style="html=1;points=[[0,0,0,0,5],[0,1,0,0,-5],[1,0,0,0,5],[1,1,0,0,-5]];perimeter=orthogonalPerimeter;outlineConnect=0;targetShapes=umlLifeline;portConstraint=eastwest;newEdgeStyle={&quot;curved&quot;:0,&quot;rounded&quot;:0};" vertex="1" parent="_GVzGOX4tjT2hlv4k6Gw-23">
          <mxGeometry x="45" y="567" width="10" height="45" as="geometry" />
        </mxCell>
        <mxCell id="_GVzGOX4tjT2hlv4k6Gw-25" value="推送出库单主键、项目编码" style="html=1;verticalAlign=bottom;endArrow=block;curved=0;rounded=0;" edge="1" parent="1" target="_GVzGOX4tjT2hlv4k6Gw-24">
          <mxGeometry width="80" relative="1" as="geometry">
            <mxPoint x="385" y="708" as="sourcePoint" />
            <mxPoint x="883.5" y="708" as="targetPoint" />
            <mxPoint as="offset" />
          </mxGeometry>
        </mxCell>
        <mxCell id="_GVzGOX4tjT2hlv4k6Gw-26" value="物资流水库" style="shape=umlLifeline;perimeter=lifelinePerimeter;whiteSpace=wrap;html=1;container=1;dropTarget=0;collapsible=0;recursiveResize=0;outlineConnect=0;portConstraint=eastwest;newEdgeStyle={&quot;curved&quot;:0,&quot;rounded&quot;:0};" vertex="1" parent="1">
          <mxGeometry x="462" y="122" width="100" height="641" as="geometry" />
        </mxCell>
        <mxCell id="_GVzGOX4tjT2hlv4k6Gw-27" value="" style="html=1;points=[[0,0,0,0,5],[0,1,0,0,-5],[1,0,0,0,5],[1,1,0,0,-5]];perimeter=orthogonalPerimeter;outlineConnect=0;targetShapes=umlLifeline;portConstraint=eastwest;newEdgeStyle={&quot;curved&quot;:0,&quot;rounded&quot;:0};" vertex="1" parent="_GVzGOX4tjT2hlv4k6Gw-26">
          <mxGeometry x="44" y="504" width="10" height="40" as="geometry" />
        </mxCell>
        <mxCell id="_GVzGOX4tjT2hlv4k6Gw-30" value="同步物资出库流水、生效状态、生效日期" style="html=1;verticalAlign=bottom;endArrow=block;curved=0;rounded=0;" edge="1" parent="1" target="_GVzGOX4tjT2hlv4k6Gw-27">
          <mxGeometry width="80" relative="1" as="geometry">
            <mxPoint x="384" y="648" as="sourcePoint" />
            <mxPoint x="619" y="644" as="targetPoint" />
          </mxGeometry>
        </mxCell>
        <mxCell id="_GVzGOX4tjT2hlv4k6Gw-36" value="入库单" style="shape=umlLifeline;perimeter=lifelinePerimeter;whiteSpace=wrap;html=1;container=1;dropTarget=0;collapsible=0;recursiveResize=0;outlineConnect=0;portConstraint=eastwest;newEdgeStyle={&quot;curved&quot;:0,&quot;rounded&quot;:0};" vertex="1" parent="1">
          <mxGeometry x="204" y="122" width="100" height="636" as="geometry" />
        </mxCell>
        <mxCell id="iTWv78ezb4gSrTpFdoXA-5" value="" style="html=1;points=[[0,0,0,0,5],[0,1,0,0,-5],[1,0,0,0,5],[1,1,0,0,-5]];perimeter=orthogonalPerimeter;outlineConnect=0;targetShapes=umlLifeline;portConstraint=eastwest;newEdgeStyle={&quot;curved&quot;:0,&quot;rounded&quot;:0};" vertex="1" parent="_GVzGOX4tjT2hlv4k6Gw-36">
          <mxGeometry x="49" y="169" width="10" height="40" as="geometry" />
        </mxCell>
        <mxCell id="iTWv78ezb4gSrTpFdoXA-6" value="转换产生出库信息" style="html=1;align=left;spacingLeft=2;endArrow=block;rounded=0;edgeStyle=orthogonalEdgeStyle;curved=0;rounded=0;" edge="1" target="iTWv78ezb4gSrTpFdoXA-5" parent="_GVzGOX4tjT2hlv4k6Gw-36">
          <mxGeometry relative="1" as="geometry">
            <mxPoint x="54" y="149" as="sourcePoint" />
            <Array as="points">
              <mxPoint x="84" y="179" />
            </Array>
          </mxGeometry>
        </mxCell>
        <mxCell id="_GVzGOX4tjT2hlv4k6Gw-37" value="供应链：进场验收单" style="shape=umlLifeline;perimeter=lifelinePerimeter;whiteSpace=wrap;html=1;container=1;dropTarget=0;collapsible=0;recursiveResize=0;outlineConnect=0;portConstraint=eastwest;newEdgeStyle={&quot;curved&quot;:0,&quot;rounded&quot;:0};" vertex="1" parent="1">
          <mxGeometry x="56" y="122" width="128" height="641" as="geometry" />
        </mxCell>
        <mxCell id="iTWv78ezb4gSrTpFdoXA-7" value="" style="html=1;points=[[0,0,0,0,5],[0,1,0,0,-5],[1,0,0,0,5],[1,1,0,0,-5]];perimeter=orthogonalPerimeter;outlineConnect=0;targetShapes=umlLifeline;portConstraint=eastwest;newEdgeStyle={&quot;curved&quot;:0,&quot;rounded&quot;:0};" vertex="1" parent="_GVzGOX4tjT2hlv4k6Gw-37">
          <mxGeometry x="59" y="51" width="10" height="96" as="geometry" />
        </mxCell>
        <mxCell id="iTWv78ezb4gSrTpFdoXA-8" value="" style="html=1;points=[[0,0,0,0,5],[0,1,0,0,-5],[1,0,0,0,5],[1,1,0,0,-5]];perimeter=orthogonalPerimeter;outlineConnect=0;targetShapes=umlLifeline;portConstraint=eastwest;newEdgeStyle={&quot;curved&quot;:0,&quot;rounded&quot;:0};" vertex="1" parent="_GVzGOX4tjT2hlv4k6Gw-37">
          <mxGeometry x="64" y="84" width="10" height="40" as="geometry" />
        </mxCell>
        <mxCell id="iTWv78ezb4gSrTpFdoXA-9" value="进场验收" style="html=1;align=left;spacingLeft=2;endArrow=block;rounded=0;edgeStyle=orthogonalEdgeStyle;curved=0;rounded=0;" edge="1" target="iTWv78ezb4gSrTpFdoXA-8" parent="_GVzGOX4tjT2hlv4k6Gw-37">
          <mxGeometry relative="1" as="geometry">
            <mxPoint x="69" y="64" as="sourcePoint" />
            <Array as="points">
              <mxPoint x="99" y="94" />
            </Array>
          </mxGeometry>
        </mxCell>
        <mxCell id="_GVzGOX4tjT2hlv4k6Gw-38" value="推送入库信息" style="html=1;verticalAlign=bottom;endArrow=block;curved=0;rounded=0;" edge="1" parent="1">
          <mxGeometry x="NaN" y="69" width="80" relative="1" as="geometry">
            <mxPoint x="253.5" y="292.5" as="sourcePoint" />
            <mxPoint x="253.5" y="292.5" as="targetPoint" />
            <mxPoint x="-61" y="-30" as="offset" />
          </mxGeometry>
        </mxCell>
        <mxCell id="iTWv78ezb4gSrTpFdoXA-2" value="" style="html=1;verticalAlign=bottom;endArrow=block;curved=0;rounded=0;exitX=0.539;exitY=0.133;exitDx=0;exitDy=0;exitPerimeter=0;" edge="1" parent="1">
          <mxGeometry width="80" relative="1" as="geometry">
            <mxPoint x="124.99199999999996" y="262.25300000000004" as="sourcePoint" />
            <mxPoint x="248" y="262.25300000000004" as="targetPoint" />
          </mxGeometry>
        </mxCell>
        <mxCell id="iTWv78ezb4gSrTpFdoXA-3" value="" style="html=1;points=[[0,0,0,0,5],[0,1,0,0,-5],[1,0,0,0,5],[1,1,0,0,-5]];perimeter=orthogonalPerimeter;outlineConnect=0;targetShapes=umlLifeline;portConstraint=eastwest;newEdgeStyle={&quot;curved&quot;:0,&quot;rounded&quot;:0};" vertex="1" parent="1">
          <mxGeometry x="248" y="245" width="10" height="132" as="geometry" />
        </mxCell>
      </root>
    </mxGraphModel>
  </diagram>
</mxfile>
